<svg width="73" height="74" viewBox="0 0 73 74" fill="none" xmlns="http://www.w3.org/2000/svg">
<path d="M14.3825 28.5828C13.6365 28.6071 13.2635 27.8458 12.9289 27.2723C12.6918 26.8517 12.2108 26.2191 11.1023 26.2573H11.0221C9.91363 26.2955 9.58945 26.6084 9.64871 28.3742L9.68705 29.497C10.2239 29.4483 10.6178 29.3857 10.8199 29.1911C11.2348 28.8157 11.3045 28.4646 11.6531 28.4541C12.0818 28.4402 12.0958 28.8678 12.1097 29.3405C12.1167 29.563 12.155 30.7622 12.1655 30.9812C12.1794 31.454 12.1934 31.8815 11.7681 31.8954C11.4195 31.9058 11.3289 31.5617 10.8897 31.2141C10.677 31.0299 10.2796 30.9986 9.73934 30.9812L9.80557 32.9556C9.84391 33.6508 9.88923 34.0575 10.1681 34.3356C10.6108 34.7944 10.8409 35.0725 10.8199 35.3749C10.7816 35.6912 10.5829 35.8581 10.0914 35.872C10.0287 35.872 6.86005 35.9797 6.82868 35.9797C6.33718 35.9971 6.1106 35.8616 6.0862 35.5313C6.04437 35.2498 6.16638 35.0377 6.55679 34.4572C6.82868 34.054 6.82868 33.5326 6.79034 32.4272L6.66136 28.4785C6.6265 27.3905 6.59165 26.8691 6.29535 26.4659C5.86311 25.9097 5.73065 25.7255 5.75505 25.4404C5.75853 25.1067 5.97814 24.9434 6.46616 24.926C6.49753 24.926 13.2112 24.7035 13.3855 24.7C14.0513 24.6792 14.3441 24.9051 14.4766 25.5829C14.609 26.2434 14.8112 27.1228 14.9472 27.7972C15.0413 28.2838 14.7833 28.5758 14.3859 28.5897L14.3825 28.5828Z" fill="white"/>
<path d="M22.4871 30.1161C22.0827 30.8739 20.9359 31.0998 20.305 30.3142C19.8588 29.7615 19.9355 29.2367 19.3986 29.254C19.0013 29.268 18.9176 29.5704 18.9176 30.0779C18.935 30.6479 18.9594 31.3258 18.9803 32.021C19.0152 33.1263 19.0535 33.7277 19.3464 34.0336C19.803 34.4785 20.0365 34.7705 19.9982 35.0729C19.9599 35.3892 19.7751 35.5526 19.2871 35.57C19.2069 35.57 16.1499 35.6743 16.1359 35.6743C15.6444 35.6917 15.4178 35.5561 15.376 35.2259C15.3516 34.9408 15.4562 34.7323 15.8466 34.1518C16.1185 33.7485 16.1185 33.2271 16.0836 32.167C16.0488 31.0929 16.0139 30.5089 15.7141 30.1231C15.2819 29.5669 15.1669 29.3653 15.1738 29.0802C15.1947 28.7465 15.4109 28.5345 15.8954 28.3607C16.366 28.1869 17.2897 27.8706 17.464 27.8184C18.2483 27.5717 18.7189 27.8567 18.8339 28.531C19.2453 28.0583 19.8379 27.6759 20.7058 27.6481C22.3999 27.5925 23.0797 28.9621 22.4836 30.1196L22.4871 30.1161Z" fill="white"/>
<path d="M27.9075 34.8087C27.8866 35.1424 27.6705 35.2919 27.1929 35.3058C27.1615 35.3058 24.1672 35.4066 24.1359 35.4066C23.6444 35.4239 23.4178 35.2884 23.3934 34.9582C23.3515 34.6766 23.4735 34.4646 23.864 33.8841C24.1359 33.4808 24.1359 32.9594 24.0975 31.8541C24.0626 30.7661 24.0278 30.2447 23.7315 29.8588C23.3027 29.3027 23.1668 29.1045 23.1912 28.816C23.1947 28.4823 23.4282 28.2703 23.8953 28.0965C24.3799 27.9227 25.3071 27.6064 25.4779 27.5542C26.3737 27.2727 26.8618 27.6828 26.8896 28.5657C26.9036 28.9446 26.9489 30.335 26.9942 31.7567C27.0291 32.8621 27.0639 33.3835 27.3602 33.7694C27.7925 34.3255 27.9075 34.5271 27.9005 34.8122L27.9075 34.8087ZM23.3097 25.2357C23.2783 24.3354 24.0626 23.5811 25.0456 23.5498C26.0426 23.5186 26.8757 24.2172 26.9036 25.1175C26.935 26.0317 26.1507 26.786 25.1537 26.8173C24.1707 26.8486 23.3411 26.1499 23.3097 25.2357Z" fill="white"/>
<path d="M36.1131 33.1642C35.6738 34.2522 34.6281 35.2046 32.7597 35.2672C30.5601 35.3401 28.3327 34.1653 28.148 31.513C27.9806 28.7983 30.0373 27.2445 32.4146 27.2619C34.7431 27.248 35.9074 28.8226 36.0747 30.1157C36.2211 31.1689 36.0433 31.586 35.029 31.6208C34.2516 31.6451 31.1179 31.7494 31.1179 31.7494C31.5641 33.7586 34.2203 33.988 35.4612 32.6984C35.9074 32.2395 36.3605 32.5732 36.1096 33.1676L36.1131 33.1642ZM31.0795 30.0253C31.0377 30.1991 31.1214 30.3555 31.2643 30.3521C31.6442 30.3381 32.8329 30.2999 33.1187 30.293C33.4987 30.2791 33.6625 30.0079 33.5231 29.5352C33.3976 29.0798 33.1083 28.4437 32.2229 28.5515C31.5118 28.621 31.205 29.3614 31.083 30.0288L31.0795 30.0253Z" fill="white"/>
<path d="M46.5148 34.1963C46.4939 34.53 46.2777 34.6794 45.7862 34.6933C45.7549 34.6933 42.778 34.7907 42.7466 34.7941C42.2551 34.8115 42.0285 34.676 41.9867 34.3457C41.9623 34.0607 42.0808 33.8521 42.4747 33.2716C42.7466 32.8684 42.7466 32.347 42.7083 31.2416V31.0817C42.6664 29.9938 42.6385 28.6033 41.4952 28.6381C40.7841 28.6624 40.4355 29.2255 40.4669 30.1884C40.4773 30.5499 40.4913 30.9323 40.5052 31.3112C40.5401 32.4165 40.5749 32.9379 40.8712 33.3238C41.3035 33.8799 41.4359 34.0781 41.4115 34.3666C41.408 34.7003 41.1884 34.8498 40.6969 34.8637C40.6656 34.8637 37.6712 34.9645 37.6573 34.9645C37.1658 34.9818 36.9392 34.8463 36.8974 34.5161C36.873 34.231 36.9776 34.0225 37.368 33.442C37.6399 33.0387 37.6538 32.5139 37.619 31.4572C37.5841 30.3831 37.5318 29.7991 37.2355 29.4133C36.8033 28.8571 36.6882 28.6555 36.6952 28.3704C36.7161 28.0367 36.9322 27.8247 37.4168 27.6509C37.8874 27.4771 38.8111 27.1608 38.9854 27.1086C39.8499 26.8445 40.3205 27.206 40.3937 28.0089C40.9131 27.4562 41.659 26.9557 42.656 26.9244C44.73 26.8549 45.4899 28.2245 45.5283 29.4376C45.5387 29.7052 45.5597 30.3692 45.5841 31.1443C45.6224 32.2497 45.6538 32.7711 45.9501 33.1569C46.3823 33.7131 46.5148 33.9147 46.5078 34.1997L46.5148 34.1963Z" fill="white"/>
<path d="M56.1286 33.8801C56.1252 34.2138 55.9056 34.3633 55.4175 34.3772C55.3862 34.3772 54.5949 34.405 53.6921 34.4328C53.0123 34.4537 52.6393 34.2451 52.4825 33.8071C52.0049 34.2799 51.3844 34.617 50.5618 34.6761C48.2681 34.8152 46.818 33.1536 46.7378 30.7865C46.6577 28.4193 47.9962 26.6674 50.2969 26.6708C51.0881 26.6604 51.7156 26.9246 52.2071 27.3348C52.1792 26.4345 52.1304 25.9617 51.8481 25.6072C51.4193 25.051 51.3008 24.8494 51.3078 24.5644C51.3287 24.2307 51.5448 24.0186 52.0293 23.8448C52.4999 23.671 53.4236 23.3721 53.5979 23.3026C54.4938 23.021 54.9818 23.4312 55.0097 24.3315C55.0202 24.693 55.2049 30.2233 55.2258 30.8212C55.2607 31.9266 55.2955 32.448 55.5918 32.8338C56.0241 33.39 56.1565 33.5916 56.1321 33.8766L56.1286 33.8801ZM52.5975 30.5988C52.5522 29.2083 52.0258 28.2142 51.0603 28.2455C50.0773 28.2768 49.6206 29.3057 49.6659 30.6926C49.7112 32.083 50.2376 33.0911 51.2171 33.0598C52.1827 33.0285 52.6393 31.9857 52.594 30.5953L52.5975 30.5988Z" fill="white"/>
<path d="M59.6389 24.4846C59.5622 25.0408 59.5204 25.2146 59.1788 26.4277C59.0359 26.9213 58.9975 27.2098 58.635 27.2202C58.2864 27.2307 58.2307 26.9491 58.0564 26.4659C57.6206 25.2771 57.5823 25.1068 57.4533 24.5576C57.2825 23.7268 57.788 23.1707 58.4991 23.1463C59.2102 23.122 59.7679 23.6434 59.6389 24.4846Z" fill="white"/>
<path d="M67.4053 32.1982C67.102 33.5851 65.6798 34.183 63.923 34.2421C60.6149 34.3498 59.2833 32.5284 60.2175 31.4543C60.6742 30.9329 61.6119 30.9642 61.9256 31.8089C62.309 32.8552 62.9434 32.9142 63.5674 32.9872C64.045 33.0359 64.7874 32.9942 64.8816 32.5006C65.0036 31.8958 63.9683 31.7567 62.7482 31.2736C61.5909 30.8043 59.7888 30.0118 60.4023 27.9192C60.831 26.4975 62.3578 26.1951 63.8672 26.2229C66.4223 26.282 67.3147 27.9296 66.5861 28.8542C66.2341 29.2783 65.3486 29.32 64.9652 28.7187C64.648 28.2077 64.6863 27.4951 63.6545 27.4638C63.2084 27.4325 62.7691 27.5577 62.7029 27.9679C62.6367 28.3954 63.1561 28.6804 64.3726 29.1149C66.3142 29.8241 67.834 30.2168 67.4088 32.1912L67.4053 32.1982Z" fill="white"/>
<path d="M19.2487 45.9284C19.2103 46.1752 19.05 46.3004 18.6631 46.3004H15.9023C15.5154 46.3004 15.2679 46.1752 15.2435 45.9284C15.1319 45.1707 16.0138 45.3827 14.8949 43.5091L14.1489 42.2821L13.2426 43.2623V43.5091C13.2426 44.3781 13.2566 44.7883 13.4797 45.0977C13.8038 45.5461 13.9014 45.706 13.877 45.9284C13.8631 46.1891 13.6888 46.3004 13.3054 46.3004H10.8304C10.4435 46.3004 10.2692 46.1891 10.2448 45.9284C10.2309 45.706 10.318 45.5426 10.6422 45.0977C10.8653 44.7883 10.8897 44.3781 10.8897 43.5091V40.4085C10.8897 39.5534 10.8653 39.1432 10.6422 38.82C10.318 38.375 10.2309 38.2256 10.2448 37.9996C10.2692 37.7389 10.4435 37.6138 10.8304 37.6138H13.3054C13.6923 37.6138 13.8666 37.7389 13.877 37.9996C13.9014 38.2221 13.8038 38.3715 13.4797 38.82C13.2566 39.1432 13.2426 39.5534 13.2426 40.4085V41.6112L15.2574 39.3657C16.1916 38.3368 15.7315 38.3994 15.7175 37.9996C15.7036 37.7389 15.9162 37.6138 16.3032 37.6138H17.9345C18.3215 37.6138 18.4679 37.7389 18.3947 37.9996C18.2587 38.4723 17.8474 38.2742 16.5646 39.6751L15.7698 40.5302L17.5476 43.5091C18.4679 45.0594 19.3393 45.2576 19.2522 45.9284H19.2487Z" fill="white"/>
<path d="M23.0656 45.9286C23.0412 46.1893 22.8669 46.3005 22.4939 46.3005H20.0922C19.7053 46.3005 19.531 46.1893 19.5205 45.9286C19.4961 45.7061 19.5937 45.5427 19.9179 45.0978C20.141 44.7885 20.1549 44.3783 20.1549 43.5093C20.1549 42.6403 20.141 42.244 19.9179 41.9346C19.5937 41.4862 19.4961 41.3263 19.5205 41.1039C19.5345 40.8432 19.7192 40.6833 20.0922 40.5581C20.4791 40.433 21.2111 40.2105 21.3471 40.1723C22.0547 39.9742 22.4277 40.3079 22.4277 41.0031V43.5093C22.4277 44.3783 22.4416 44.7885 22.6647 45.0978C22.9889 45.5462 23.0761 45.7061 23.0621 45.9286H23.0656ZM19.7053 38.2987C19.7053 37.5896 20.3397 37.0195 21.11 37.0195C21.8804 37.0195 22.5288 37.5896 22.5288 38.2987C22.5288 39.0078 21.8944 39.5883 21.11 39.5883C20.3257 39.5883 19.7053 39.0182 19.7053 38.2987Z" fill="white"/>
<path d="M25.8891 46.4116C24.9061 46.4116 23.8604 45.9285 23.8604 44.3156V41.3019H23.4386C23.1632 41.3019 22.9541 41.0898 22.9541 40.8187V40.7075C22.9541 40.4468 23.1667 40.2243 23.4386 40.2243H23.6861C24.7806 40.2243 24.2578 38.7227 25.1292 38.7227H25.6277C26.039 38.7227 26.1262 38.9208 26.1262 39.3066V40.2243H27.158C27.4194 40.2243 27.6425 40.4468 27.6425 40.7075V40.8187C27.6425 41.0933 27.4194 41.3019 27.158 41.3019H26.1262V44.2287C26.1262 44.8996 26.6595 45.0734 27.2451 44.7501C27.4578 44.6389 27.6808 44.6145 27.8168 44.7744C28.2386 45.2715 27.2695 46.4116 25.8891 46.4116Z" fill="white"/>
<path d="M30.4555 43.311C30.8041 45.1707 32.6934 45.3966 33.788 44.3781C34.1505 44.0444 34.4851 44.3051 34.2864 44.764C33.9135 45.6086 32.9932 46.4151 31.5361 46.4151C29.8072 46.4151 28.3152 45.4487 28.1898 43.45C28.0643 41.4652 29.6189 40.127 31.4873 40.127C33.5788 40.127 34.8965 41.5904 34.1366 42.734C33.7252 43.3527 32.5052 43.3527 32.296 42.4246C32.0974 41.5313 31.7488 41.1593 31.1527 41.2601C30.5671 41.3609 30.2464 42.1778 30.4555 43.3179V43.311Z" fill="white"/>
<path d="M42.3003 45.9285C42.2759 46.1892 42.1016 46.3005 41.7147 46.3005H39.3269C38.9399 46.3005 38.7657 46.1892 38.7413 45.9285C38.7273 45.7061 38.8145 45.5427 39.1526 45.0978C39.3757 44.7884 39.3896 44.3782 39.3896 43.5092V43.3841C39.3896 42.529 39.4036 41.4375 38.5077 41.4375C37.9465 41.4375 37.6606 41.872 37.6606 42.6298V43.5092C37.6606 44.3782 37.6746 44.7884 37.8977 45.0978C38.2219 45.5462 38.3195 45.7061 38.2951 45.9285C38.2811 46.1892 38.1068 46.3005 37.7234 46.3005H35.3356C34.9487 46.3005 34.7744 46.1892 34.75 45.9285C34.736 45.7061 34.8232 45.5427 35.1474 45.0978C35.3705 44.7884 35.3949 44.3782 35.3949 43.5231V40.9161C35.3949 40.0471 35.3705 39.6369 35.1474 39.3276C34.8232 38.8791 34.736 38.7192 34.75 38.4968C34.7744 38.2361 34.9487 38.0762 35.3356 37.951C35.7086 37.8259 36.4441 37.6173 36.58 37.5652C37.3016 37.3671 37.6606 37.7008 37.6606 38.4099V40.9022C38.0824 40.492 38.682 40.1201 39.4663 40.1201C41.0977 40.1201 41.6554 41.2116 41.6554 42.1675V43.5057C41.6554 44.3747 41.6693 44.7849 41.8924 45.0943C42.2166 45.5427 42.3142 45.7026 42.3038 45.925L42.3003 45.9285Z" fill="white"/>
<path d="M48.7805 44.8473C48.4075 45.692 47.5605 46.4115 46.093 46.4115C44.364 46.4115 42.6455 45.4313 42.5723 43.3457C42.5095 41.2114 44.1653 40.0469 46.0302 40.1199C47.8603 40.1686 48.7282 41.4339 48.8293 42.4523C48.9165 43.2831 48.7666 43.6064 47.9718 43.6064H44.8973C45.1971 45.1949 47.2747 45.4417 48.2821 44.4615C48.6446 44.1139 48.9897 44.3885 48.7805 44.8473ZM44.9113 42.2542C44.8729 42.3898 44.9357 42.5149 45.0472 42.5149H46.5043C46.8041 42.5149 46.94 42.3029 46.8389 41.9309C46.7518 41.5694 46.5391 41.0619 45.8455 41.1245C45.2843 41.1627 45.0228 41.7328 44.9113 42.2542Z" fill="white"/>
<path d="M56.9164 45.9285C56.892 46.1892 56.7177 46.3004 56.3308 46.3004H53.943C53.5561 46.3004 53.3818 46.1892 53.3574 45.9285C53.3435 45.706 53.4445 45.5426 53.7687 45.0977C53.9918 44.7883 54.0058 44.3781 54.0058 43.5091V43.384C54.0058 42.5289 54.0197 41.4374 53.1238 41.4374C52.5626 41.4374 52.2768 41.8719 52.2768 42.6297V43.5091C52.2768 44.3781 52.2907 44.7883 52.5138 45.0977C52.838 45.5461 52.9356 45.706 52.9112 45.9285C52.8973 46.1892 52.723 46.3004 52.3395 46.3004H49.9518C49.5648 46.3004 49.3905 46.1892 49.3661 45.9285C49.3522 45.706 49.4393 45.5426 49.7635 45.0977C49.9866 44.7883 50.011 44.3781 50.011 43.5474C50.011 42.7166 49.9866 42.2439 49.7635 41.9345C49.4393 41.4861 49.3522 41.3262 49.3661 41.1037C49.3905 40.843 49.5648 40.6831 49.9518 40.558C50.3247 40.4329 51.0602 40.2104 51.1962 40.1721C51.8794 39.9844 52.2419 40.2834 52.2768 40.916C52.6986 40.4954 53.2981 40.1235 54.079 40.1235C55.7103 40.1235 56.2681 41.215 56.2681 42.1709V43.5091C56.2681 44.3781 56.282 44.7883 56.5051 45.0977C56.8293 45.5461 56.9269 45.706 56.9164 45.9285Z" fill="white"/>
<path d="M63.1073 40.4677C62.9643 40.6798 63.6685 36.7449 65.7809 36.001C67.8933 35.2571 69.3399 37.8989 67.2101 38.7923C65.7739 39.3936 64.2855 38.7297 63.1038 40.4677H63.1073Z" fill="white"/>
<path d="M58.994 45.9143C58.994 45.9143 63.2746 41.4163 66.0598 42.4348C68.8449 43.4532 69.2319 47.6905 65.7949 47.5897C63.7382 47.5271 63.3827 45.584 58.994 45.9143Z" fill="white"/>
<path d="M9.03871 42.8832C9.03871 42.8832 6.74853 36.4977 2.36685 37.4571C-0.613521 38.1106 -1.01439 42.7615 2.52372 42.765C5.38209 42.7685 4.23525 40.4812 9.03871 42.8832Z" fill="white"/>
<path d="M64.3169 50.1792C64.2576 50.1792 64.1949 50.1792 64.1356 50.1827H10.0357C9.97643 50.1827 9.91368 50.1792 9.85442 50.1792C5.0684 50.1792 1.17125 54.0619 1.17125 58.838C1.17125 63.614 5.06491 67.4968 9.85442 67.4968C9.94854 67.4968 10.0392 67.4933 10.1298 67.4898C11.057 70.9519 14.2222 73.4999 17.9868 73.4999H56.1844C59.9491 73.4999 63.1143 70.9485 64.0415 67.4898C64.1321 67.4898 64.2262 67.4968 64.3169 67.4968C69.1029 67.4968 73 63.614 73 58.838C73 54.0619 69.1064 50.1792 64.3169 50.1792ZM5.35772 58.838C5.35772 56.3631 7.37601 54.3504 9.85791 54.3504V63.3221C7.37601 63.3221 5.35772 61.3094 5.35772 58.8345V58.838ZM64.3169 63.3255V54.3539C66.7988 54.3539 68.8171 56.3665 68.8171 58.8415C68.8171 61.3164 66.7988 63.329 64.3169 63.329V63.3255Z" fill="white"/>
<path d="M42.3353 8.46705C41.9832 4.01426 38.2395 0.5 33.6835 0.5C28.8975 0.5 25.0003 4.38272 25.0003 9.15878C25.0003 9.36039 25.0108 9.562 25.0247 9.76361C15.261 12.1204 8.33812 16.9937 7.93028 22.326L62.2115 18.9542C61.0925 13.483 52.988 9.38125 42.3353 8.47053V8.46705ZM33.6835 4.67123C35.8621 4.67123 37.6817 6.22502 38.0931 8.27587C36.8521 8.26892 35.5868 8.30368 34.304 8.38363C32.5506 8.49138 30.8461 8.67909 29.1938 8.93632C29.3088 6.56567 31.2748 4.67123 33.6835 4.67123Z" fill="white"/>
</svg>
