<svg width="73" height="73" viewBox="0 0 73 73" fill="none" xmlns="http://www.w3.org/2000/svg">
<path d="M14.3825 28.0828C13.6365 28.1072 13.2636 27.3459 12.9289 26.7724C12.6919 26.3518 12.2108 25.7192 11.1023 25.7574H11.0222C9.91368 25.7956 9.5895 26.1085 9.64876 27.8743L9.68711 28.997C10.2239 28.9484 10.6178 28.8858 10.82 28.6912C11.2348 28.3157 11.3045 27.9647 11.6531 27.9542C12.0819 27.9403 12.0958 28.3679 12.1098 28.8406C12.1167 29.0631 12.1551 30.2623 12.1655 30.4813C12.1795 30.954 12.1934 31.3816 11.7681 31.3955C11.4196 31.4059 11.3289 31.0618 10.8897 30.7142C10.6771 30.53 10.2797 30.4987 9.73939 30.4813L9.80562 32.4557C9.84397 33.1509 9.88928 33.5576 10.1681 33.8357C10.6108 34.2945 10.8409 34.5726 10.82 34.875C10.7817 35.1913 10.583 35.3582 10.0915 35.3721C10.0287 35.3721 6.86011 35.4798 6.82873 35.4798C6.33723 35.4972 6.11066 35.3616 6.08625 35.0314C6.04442 34.7499 6.16643 34.5378 6.55684 33.9573C6.82873 33.5541 6.82873 33.0327 6.79039 31.9273L6.66142 27.9786C6.62656 26.8906 6.5917 26.3692 6.2954 25.9659C5.86316 25.4098 5.7307 25.2256 5.7551 24.9405C5.75859 24.6068 5.97819 24.4434 6.46621 24.4261C6.49758 24.4261 13.2113 24.2036 13.3856 24.2001C14.0514 24.1793 14.3442 24.4052 14.4766 25.083C14.6091 25.7435 14.8113 26.6229 14.9472 27.2973C15.0413 27.7839 14.7834 28.0759 14.386 28.0898L14.3825 28.0828Z" fill="#232323"/>
<path d="M22.487 29.6158C22.0827 30.3735 20.9358 30.5995 20.3049 29.8139C19.8587 29.2612 19.9354 28.7363 19.3986 28.7537C19.0012 28.7676 18.9175 29.07 18.9175 29.5775C18.935 30.1476 18.9594 30.8254 18.9803 31.5206C19.0151 32.626 19.0535 33.2274 19.3463 33.5332C19.8029 33.9782 20.0365 34.2702 19.9981 34.5726C19.9598 34.8889 19.775 35.0523 19.287 35.0697C19.2069 35.0697 16.1498 35.1739 16.1358 35.1739C15.6443 35.1913 15.4178 35.0557 15.3759 34.7255C15.3515 34.4405 15.4561 34.2319 15.8465 33.6514C16.1184 33.2482 16.1184 32.7268 16.0836 31.6666C16.0487 30.5925 16.0138 30.0086 15.7141 29.6227C15.2818 29.0666 15.1668 28.8649 15.1738 28.5799C15.1947 28.2462 15.4108 28.0342 15.8953 27.8604C16.3659 27.6866 17.2896 27.3703 17.4639 27.3181C18.2482 27.0713 18.7188 27.3564 18.8339 28.0307C19.2452 27.558 19.8378 27.1756 20.7058 27.1478C22.3999 27.0922 23.0796 28.4617 22.4835 29.6192L22.487 29.6158Z" fill="#232323"/>
<path d="M27.9075 34.3084C27.8866 34.6421 27.6705 34.7916 27.1929 34.8055C27.1616 34.8055 24.1672 34.9063 24.1359 34.9063C23.6444 34.9237 23.4178 34.7881 23.3934 34.4579C23.3516 34.1763 23.4736 33.9643 23.864 33.3838C24.1359 32.9806 24.1359 32.4592 24.0975 31.3538C24.0627 30.2658 24.0278 29.7444 23.7315 29.3585C23.3028 28.8024 23.1668 28.6042 23.1912 28.3157C23.1947 27.982 23.4282 27.77 23.8953 27.5962C24.3799 27.4224 25.3071 27.1061 25.4779 27.0539C26.3738 26.7724 26.8618 27.1825 26.8897 28.0655C26.9036 28.4443 26.9489 29.8348 26.9942 31.2564C27.0291 32.3618 27.064 32.8832 27.3602 33.2691C27.7925 33.8252 27.9075 34.0268 27.9005 34.3119L27.9075 34.3084ZM23.3097 24.7354C23.2784 23.8351 24.0627 23.0808 25.0457 23.0495C26.0426 23.0183 26.8757 23.7169 26.9036 24.6172C26.935 25.5314 26.1507 26.2857 25.1537 26.317C24.1707 26.3483 23.3411 25.6496 23.3097 24.7354Z" fill="#232323"/>
<path d="M36.1131 32.6642C35.6739 33.7522 34.6281 34.7047 32.7597 34.7672C30.5602 34.8402 28.3327 33.6653 28.148 31.0131C27.9807 28.2984 30.0373 26.7446 32.4146 26.762C34.7431 26.7481 35.9074 28.3227 36.0747 29.6158C36.2211 30.669 36.0434 31.0861 35.029 31.1209C34.2516 31.1452 31.1179 31.2495 31.1179 31.2495C31.5641 33.2586 34.2203 33.4881 35.4612 32.1985C35.9074 31.7396 36.3606 32.0733 36.1096 32.6677L36.1131 32.6642ZM31.0795 29.5254C31.0377 29.6992 31.1214 29.8556 31.2643 29.8521C31.6443 29.8382 32.8329 29.8 33.1188 29.793C33.4987 29.7791 33.6625 29.508 33.5231 29.0353C33.3976 28.5799 33.1083 27.9438 32.2229 28.0516C31.5118 28.1211 31.205 28.8615 31.083 29.5289L31.0795 29.5254Z" fill="#232323"/>
<path d="M46.5148 33.6966C46.4939 34.0303 46.2778 34.1798 45.7863 34.1937C45.7549 34.1937 42.778 34.291 42.7466 34.2945C42.2551 34.3119 42.0285 34.1763 41.9867 33.8461C41.9623 33.5611 42.0808 33.3525 42.4747 32.772C42.7466 32.3688 42.7466 31.8474 42.7083 30.742V30.5821C42.6664 29.4941 42.6386 28.1037 41.4952 28.1385C40.7841 28.1628 40.4355 28.7259 40.4669 29.6888C40.4774 30.0503 40.4913 30.4326 40.5052 30.8115C40.5401 31.9169 40.575 32.4383 40.8713 32.8241C41.3035 33.3803 41.436 33.5784 41.4116 33.867C41.4081 34.2007 41.1885 34.3501 40.697 34.364C40.6656 34.364 37.6713 34.4648 37.6573 34.4648C37.1658 34.4822 36.9392 34.3466 36.8974 34.0164C36.873 33.7314 36.9776 33.5228 37.368 32.9423C37.6399 32.5391 37.6538 32.0142 37.619 30.9575C37.5841 29.8834 37.5318 29.2995 37.2355 28.9136C36.8033 28.3575 36.6883 28.1558 36.6952 27.8708C36.7162 27.5371 36.9323 27.3251 37.4168 27.1513C37.8874 26.9775 38.8111 26.6612 38.9854 26.609C39.8499 26.3448 40.3205 26.7063 40.3937 27.5093C40.9131 26.9566 41.659 26.4561 42.656 26.4248C44.7301 26.3553 45.49 27.7248 45.5283 28.938C45.5388 29.2056 45.5597 29.8695 45.5841 30.6447C45.6224 31.7501 45.6538 32.2715 45.9501 32.6573C46.3823 33.2135 46.5148 33.4151 46.5078 33.7001L46.5148 33.6966Z" fill="#232323"/>
<path d="M56.1286 33.3803C56.1252 33.714 55.9055 33.8635 55.4175 33.8774C55.3862 33.8774 54.5949 33.9052 53.6921 33.933C53.0123 33.9539 52.6393 33.7453 52.4825 33.3073C52.0049 33.7801 51.3844 34.1172 50.5618 34.1763C48.2681 34.3154 46.818 32.6538 46.7378 30.2866C46.6577 27.9195 47.9962 26.1676 50.2969 26.171C51.0881 26.1606 51.7156 26.4248 52.2071 26.8349C52.1792 25.9347 52.1304 25.4619 51.8481 25.1074C51.4193 24.5512 51.3008 24.3496 51.3078 24.0646C51.3287 23.7309 51.5448 23.5188 52.0293 23.345C52.4999 23.1712 53.4236 22.8723 53.5979 22.8028C54.4938 22.5212 54.9818 22.9314 55.0097 23.8317C55.0201 24.1932 55.2049 29.7235 55.2258 30.3214C55.2607 31.4268 55.2955 31.9482 55.5918 32.334C56.0241 32.8902 56.1565 33.0918 56.1321 33.3768L56.1286 33.3803ZM52.5975 30.0989C52.5522 28.7085 52.0258 27.7144 51.0603 27.7457C50.0773 27.777 49.6206 28.8059 49.6659 30.1928C49.7112 31.5832 50.2376 32.5912 51.2171 32.56C52.1827 32.5287 52.6393 31.4859 52.594 30.0955L52.5975 30.0989Z" fill="#232323"/>
<path d="M59.6389 23.9846C59.5622 24.5408 59.5204 24.7146 59.1788 25.9277C59.0359 26.4213 58.9975 26.7098 58.635 26.7202C58.2864 26.7307 58.2306 26.4491 58.0563 25.9659C57.6206 24.7771 57.5823 24.6068 57.4533 24.0576C57.2825 23.2268 57.7879 22.6707 58.499 22.6463C59.2101 22.622 59.7679 23.1434 59.6389 23.9846Z" fill="#232323"/>
<path d="M67.4053 31.6979C67.102 33.0848 65.6798 33.6827 63.923 33.7418C60.6149 33.8496 59.2834 32.0281 60.2176 30.954C60.6742 30.4326 61.6119 30.4639 61.9256 31.3086C62.309 32.3549 62.9435 32.414 63.5674 32.487C64.045 32.5356 64.7875 32.4939 64.8816 32.0003C65.0036 31.3955 63.9683 31.2565 62.7483 30.7733C61.591 30.304 59.7888 29.5115 60.4023 27.4189C60.8311 25.9972 62.3578 25.6948 63.8672 25.7226C66.4223 25.7817 67.3147 27.4293 66.5861 28.354C66.2341 28.778 65.3487 28.8198 64.9652 28.2184C64.648 27.7074 64.6864 26.9948 63.6546 26.9636C63.2084 26.9323 62.7692 27.0574 62.7029 27.4676C62.6367 27.8951 63.1561 28.1802 64.3727 28.6147C66.3143 29.3238 67.8341 29.7166 67.4088 31.691L67.4053 31.6979Z" fill="#232323"/>
<path d="M19.2487 45.4282C19.2103 45.675 19.05 45.8001 18.6631 45.8001H15.9023C15.5154 45.8001 15.2679 45.675 15.2435 45.4282C15.1319 44.6704 16.0138 44.8824 14.8949 43.0089L14.1489 41.7818L13.2426 42.7621V43.0089C13.2426 43.8779 13.2566 44.288 13.4796 44.5974C13.8038 45.0458 13.9014 45.2057 13.877 45.4282C13.8631 45.6889 13.6888 45.8001 13.3054 45.8001H10.8304C10.4435 45.8001 10.2692 45.6889 10.2448 45.4282C10.2309 45.2057 10.318 45.0423 10.6422 44.5974C10.8653 44.288 10.8897 43.8779 10.8897 43.0089V39.9083C10.8897 39.0531 10.8653 38.643 10.6422 38.3197C10.318 37.8748 10.2309 37.7253 10.2448 37.4994C10.2692 37.2387 10.4435 37.1135 10.8304 37.1135H13.3054C13.6923 37.1135 13.8666 37.2387 13.877 37.4994C13.9014 37.7218 13.8038 37.8713 13.4796 38.3197C13.2566 38.643 13.2426 39.0531 13.2426 39.9083V41.111L15.2574 38.8654C16.1916 37.8365 15.7315 37.8991 15.7175 37.4994C15.7036 37.2387 15.9162 37.1135 16.3032 37.1135H17.9345C18.3215 37.1135 18.4679 37.2387 18.3947 37.4994C18.2587 37.9721 17.8474 37.774 16.5646 39.1748L15.7698 40.0299L17.5476 43.0089C18.4679 44.5592 19.3393 44.7573 19.2522 45.4282H19.2487Z" fill="#232323"/>
<path d="M23.0657 45.4282C23.0413 45.6889 22.867 45.8001 22.494 45.8001H20.0923C19.7053 45.8001 19.531 45.6889 19.5206 45.4282C19.4962 45.2057 19.5938 45.0424 19.918 44.5974C20.1411 44.2881 20.155 43.8779 20.155 43.0089C20.155 42.1399 20.1411 41.7436 19.918 41.4342C19.5938 40.9858 19.4962 40.8259 19.5206 40.6035C19.5345 40.3428 19.7193 40.1829 20.0923 40.0577C20.4792 39.9326 21.2112 39.7101 21.3472 39.6719C22.0548 39.4738 22.4278 39.8075 22.4278 40.5027V43.0089C22.4278 43.8779 22.4417 44.2881 22.6648 44.5974C22.989 45.0458 23.0761 45.2057 23.0622 45.4282H23.0657ZM19.7053 37.7983C19.7053 37.0892 20.3398 36.5191 21.1101 36.5191C21.8805 36.5191 22.5289 37.0892 22.5289 37.7983C22.5289 38.5074 21.8944 39.0879 21.1101 39.0879C20.3258 39.0879 19.7053 38.5178 19.7053 37.7983Z" fill="#232323"/>
<path d="M25.8892 45.9114C24.9062 45.9114 23.8605 45.4282 23.8605 43.8153V40.8016H23.4387C23.1633 40.8016 22.9542 40.5896 22.9542 40.3184V40.2072C22.9542 39.9465 23.1668 39.724 23.4387 39.724H23.6862C24.7807 39.724 24.2579 38.2224 25.1293 38.2224H25.6278C26.0391 38.2224 26.1263 38.4205 26.1263 38.8064V39.724H27.1581C27.4195 39.724 27.6426 39.9465 27.6426 40.2072V40.3184C27.6426 40.593 27.4195 40.8016 27.1581 40.8016H26.1263V43.7284C26.1263 44.3993 26.6596 44.5731 27.2452 44.2498C27.4578 44.1386 27.6809 44.1142 27.8169 44.2741C28.2387 44.7712 27.2696 45.9114 25.8892 45.9114Z" fill="#232323"/>
<path d="M30.4556 42.8108C30.8041 44.6704 32.6935 44.8964 33.788 43.8779C34.1505 43.5442 34.4852 43.8049 34.2865 44.2637C33.9135 45.1084 32.9932 45.9148 31.5362 45.9148C29.8072 45.9148 28.3153 44.9485 28.1898 42.9498C28.0643 40.965 29.619 39.6267 31.4874 39.6267C33.5789 39.6267 34.8965 41.0901 34.1366 42.2337C33.7253 42.8525 32.5052 42.8525 32.2961 41.9244C32.0974 41.031 31.7488 40.6591 31.1527 40.7599C30.5671 40.8607 30.2464 41.6776 30.4556 42.8177V42.8108Z" fill="#232323"/>
<path d="M42.3004 45.4282C42.276 45.6889 42.1017 45.8001 41.7148 45.8001H39.327C38.9401 45.8001 38.7658 45.6889 38.7414 45.4282C38.7274 45.2057 38.8146 45.0424 39.1527 44.5974C39.3758 44.2881 39.3897 43.8779 39.3897 43.0089V42.8837C39.3897 42.0286 39.4037 40.9372 38.5078 40.9372C37.9466 40.9372 37.6608 41.3717 37.6608 42.1294V43.0089C37.6608 43.8779 37.6747 44.2881 37.8978 44.5974C38.222 45.0458 38.3196 45.2057 38.2952 45.4282C38.2813 45.6889 38.107 45.8001 37.7235 45.8001H35.3357C34.9488 45.8001 34.7745 45.6889 34.7501 45.4282C34.7362 45.2057 34.8233 45.0424 35.1475 44.5974C35.3706 44.2881 35.395 43.8779 35.395 43.0228V40.4158C35.395 39.5468 35.3706 39.1366 35.1475 38.8272C34.8233 38.3788 34.7362 38.2189 34.7501 37.9964C34.7745 37.7357 34.9488 37.5758 35.3357 37.4507C35.7087 37.3256 36.4442 37.117 36.5802 37.0649C37.3017 36.8667 37.6608 37.2004 37.6608 37.9095V40.4019C38.0826 39.9917 38.6821 39.6198 39.4664 39.6198C41.0978 39.6198 41.6555 40.7112 41.6555 41.6671V43.0054C41.6555 43.8744 41.6695 44.2846 41.8926 44.5939C42.2167 45.0423 42.3143 45.2022 42.3039 45.4247L42.3004 45.4282Z" fill="#232323"/>
<path d="M48.7805 44.3471C48.4075 45.1918 47.5605 45.9114 46.093 45.9114C44.364 45.9114 42.6455 44.9311 42.5723 42.8455C42.5095 40.7112 44.1653 39.5468 46.0302 39.6198C47.8603 39.6684 48.7282 40.9337 48.8293 41.9522C48.9165 42.7829 48.7666 43.1062 47.9718 43.1062H44.8973C45.1971 44.6948 47.2747 44.9415 48.2821 43.9613C48.6446 43.6137 48.9897 43.8883 48.7805 44.3471ZM44.9113 41.754C44.8729 41.8896 44.9357 42.0147 45.0472 42.0147H46.5043C46.8041 42.0147 46.94 41.8027 46.8389 41.4308C46.7518 41.0693 46.5391 40.5618 45.8455 40.6243C45.2843 40.6626 45.0228 41.2326 44.9113 41.754Z" fill="#232323"/>
<path d="M56.9164 45.4282C56.892 45.6889 56.7177 45.8001 56.3308 45.8001H53.943C53.5561 45.8001 53.3818 45.6889 53.3574 45.4282C53.3435 45.2057 53.4446 45.0424 53.7687 44.5974C53.9918 44.2881 54.0058 43.8779 54.0058 43.0089V42.8837C54.0058 42.0286 54.0197 40.9372 53.1239 40.9372C52.5626 40.9372 52.2768 41.3717 52.2768 42.1294V43.0089C52.2768 43.8779 52.2907 44.2881 52.5138 44.5974C52.838 45.0458 52.9356 45.2057 52.9112 45.4282C52.8973 45.6889 52.723 45.8001 52.3395 45.8001H49.9518C49.5648 45.8001 49.3905 45.6889 49.3661 45.4282C49.3522 45.2057 49.4393 45.0424 49.7635 44.5974C49.9866 44.2881 50.011 43.8779 50.011 43.0471C50.011 42.2163 49.9866 41.7436 49.7635 41.4342C49.4393 40.9858 49.3522 40.8259 49.3661 40.6035C49.3905 40.3428 49.5648 40.1829 49.9518 40.0577C50.3247 39.9326 51.0603 39.7101 51.1962 39.6719C51.8794 39.4842 52.2419 39.7831 52.2768 40.4158C52.6986 39.9952 53.2982 39.6232 54.079 39.6232C55.7103 39.6232 56.2681 40.7147 56.2681 41.6706V43.0089C56.2681 43.8779 56.282 44.2881 56.5051 44.5974C56.8293 45.0458 56.9269 45.2057 56.9164 45.4282Z" fill="#232323"/>
<path d="M63.1073 39.9674C62.9644 40.1794 63.6685 36.2445 65.7809 35.5007C67.8933 34.7568 69.3399 37.3986 67.2101 38.2919C65.774 38.8933 64.2855 38.2293 63.1038 39.9674H63.1073Z" fill="#EE415F"/>
<path d="M58.994 45.4143C58.994 45.4143 63.2746 40.9163 66.0598 41.9348C68.8449 42.9533 69.2319 47.1906 65.7949 47.0897C63.7382 47.0272 63.3827 45.0841 58.994 45.4143Z" fill="#EE415F"/>
<path d="M9.03871 42.3832C9.03871 42.3832 6.74853 35.9977 2.36685 36.9571C-0.613521 37.6106 -1.01439 42.2615 2.52372 42.265C5.38209 42.2685 4.23525 39.9813 9.03871 42.3832Z" fill="#EE415F"/>
<path d="M64.3168 49.6794C64.2576 49.6794 64.1948 49.6793 64.1356 49.6828H10.0356C9.97638 49.6828 9.91364 49.6794 9.85438 49.6794C5.06835 49.6794 1.1712 53.5621 1.1712 58.3381C1.1712 63.1142 5.06486 66.9969 9.85438 66.9969C9.9485 66.9969 10.0391 66.9934 10.1298 66.99C11.057 70.4521 14.2221 73 17.9868 73H56.1844C59.9491 73 63.1142 70.4486 64.0414 66.99C64.1321 66.99 64.2262 66.9969 64.3168 66.9969C69.1028 66.9969 73 63.1142 73 58.3381C73 53.5621 69.1063 49.6794 64.3168 49.6794ZM5.35767 58.3381C5.35767 55.8632 7.37596 53.8506 9.85786 53.8506V62.8222C7.37596 62.8222 5.35767 60.8096 5.35767 58.3347V58.3381ZM64.3168 62.8257V53.8541C66.7987 53.8541 68.817 55.8667 68.817 58.3416C68.817 60.8165 66.7987 62.8292 64.3168 62.8292V62.8257Z" fill="#EE415F"/>
<path d="M42.3353 7.96705C41.9832 3.51426 38.2394 0 33.6835 0C28.8974 0 25.0003 3.88272 25.0003 8.65878C25.0003 8.86039 25.0107 9.062 25.0247 9.26361C15.2609 11.6204 8.33808 16.4937 7.93024 21.826L62.2114 18.4542C61.0925 12.983 52.9879 8.88125 42.3353 7.97053V7.96705ZM33.6835 4.17123C35.8621 4.17123 37.6817 5.72502 38.093 7.77587C36.8521 7.76892 35.5867 7.80368 34.3039 7.88363C32.5506 7.99138 30.846 8.17909 29.1937 8.43632C29.3088 6.06567 31.2748 4.17123 33.6835 4.17123Z" fill="#EE415F"/>
</svg>
