<svg width="72" height="48" viewBox="0 0 72 48" fill="none" xmlns="http://www.w3.org/2000/svg">
<path d="M54 0H30.5C36.25 4 40 10.625 40 18V48H68C70.125 48 72 46.25 72 44.125V18C72 8.125 63.875 0 54 0ZM64 26C64 27 63 27.875 62 27.875H58C56.875 27.875 56 27 56 26V20H50C48.875 20 48 19.125 48 18.125C48 17.125 48.875 16.25 50 16.25H62C63 16.25 64 17.125 64 18.125V26ZM18 0C8 0 0 8.125 0 18V44C0 46.125 1.75 47.875 4 47.875L36 48V18C36 8.125 27.875 0 18 0ZM26 20H10C8.875 20 8 19.125 8 18.125C8 17.125 8.875 16.25 10 16.25H26C27 16.25 28 17.125 28 18.125C28 19.125 27 20 26 20Z" fill="#F39784"/>
</svg>
